<svg width="51" height="39" viewBox="0 0 51 39" fill="none" xmlns="http://www.w3.org/2000/svg">
<path d="M50.9908 29.1565H50.9903C50.9151 29.1565 45.0096 29.0521 44.6391 18.875C44.2483 8.14811 36.7917 4.10267 31.6355 3.91525C28.3295 1.46793 24.2346 0 19.7819 0C8.85649 0 0 8.73045 0 19.5001C0 30.2697 8.85648 39 19.7817 39C30.7069 39 39.5634 30.2697 39.5634 19.5002C39.5634 14.59 37.7085 10.1164 34.6698 6.68795C38.0942 7.96814 42.2372 11.3079 42.5153 18.9507C42.9589 31.1274 50.8948 31.2511 51 31.2511L50.9908 29.1565ZM12.1343 28.1808C10.3154 29.2158 7.98983 28.6016 6.93974 26.8088C5.88965 25.016 6.51288 22.7233 8.33155 21.6882C10.1503 20.653 12.476 21.2674 13.5261 23.0602C14.5762 24.8531 13.953 27.1458 12.1343 28.1808ZM13.5261 15.9397C12.476 17.7326 10.1503 18.3467 8.33155 17.3117C6.51277 16.2766 5.88965 13.9842 6.93974 12.1913C7.98983 10.3982 10.3154 9.78409 12.1343 10.8191C13.953 11.8544 14.5762 14.1469 13.5261 15.9397ZM19.7817 34.1175C17.6816 34.1175 15.9791 32.4392 15.9791 30.3689C15.9791 28.299 17.6816 26.6206 19.7817 26.6206C21.8818 26.6206 23.5843 28.299 23.5843 30.3689C23.5844 32.4393 21.8818 34.1175 19.7817 34.1175ZM17.6349 19.5001C17.6349 18.3314 18.596 17.3838 19.7817 17.3838C20.9674 17.3838 21.9285 18.3314 21.9285 19.5001C21.9285 20.6687 20.9674 21.6163 19.7817 21.6163C18.596 21.6163 17.6349 20.6688 17.6349 19.5001ZM19.7817 12.3796C17.6816 12.3796 15.9791 10.7013 15.9791 8.63111C15.9791 6.56073 17.6816 4.88253 19.7817 4.88253C21.8818 4.88253 23.5843 6.56073 23.5843 8.63111C23.5844 10.7014 21.8818 12.3796 19.7817 12.3796ZM32.6238 26.8088C31.5737 28.6017 29.2481 29.2158 27.4292 28.1808C25.6104 27.1458 24.9873 24.8531 26.0374 23.0602C27.0875 21.2673 29.4132 20.653 31.2319 21.6882C33.0507 22.7233 33.6739 25.0159 32.6238 26.8088ZM31.2318 17.3118C29.4131 18.3468 27.0874 17.7326 26.0373 15.9398C24.9872 14.1469 25.6104 11.8545 27.4291 10.8192C29.248 9.7842 31.5736 10.3984 32.6237 12.1914C33.6739 13.9843 33.0507 16.2768 31.2318 17.3118Z" fill="#AA3C33"/>
</svg>
